<?xml version="1.0" standalone="no"?>
<!DOCTYPE svg PUBLIC "-//W3C//DTD SVG 20010904//EN"
 "http://www.w3.org/TR/2001/REC-SVG-20010904/DTD/svg10.dtd">
<svg version="1.0" xmlns="http://www.w3.org/2000/svg"
 width="2006.000000pt" height="771.000000pt" viewBox="0 0 2006.000000 771.000000"
 preserveAspectRatio="xMidYMid meet">
<metadata>
Created by potrace 1.16, written by Peter Selinger 2001-2019
</metadata>
<g transform="translate(0.000000,771.000000) scale(0.100000,-0.100000)"
fill="#000000" stroke="none">
<path d="M9970 5595 c-284 -45 -520 -164 -716 -359 -200 -200 -319 -436 -360
-716 -20 -138 -14 -382 11 -500 114 -524 504 -895 1050 -996 129 -24 369 -22
500 4 378 75 681 283 869 596 20 33 33 63 29 67 -10 9 -415 190 -418 187 -1
-2 -19 -30 -40 -63 -108 -170 -288 -302 -490 -356 -96 -26 -295 -31 -390 -10
-310 68 -547 294 -636 606 -27 91 -37 305 -20 411 51 312 255 566 536 667 110
39 197 50 341 45 110 -4 143 -10 220 -36 164 -55 304 -156 400 -287 l47 -64
166 84 c91 45 185 94 208 107 l43 25 -59 80 c-200 273 -508 456 -853 507 -126
19 -321 19 -438 1z"/>
<path d="M5223 5555 c-89 -45 -153 -144 -153 -235 0 -137 128 -260 270 -260
213 0 343 247 216 412 -52 69 -113 101 -204 105 -68 4 -83 1 -129 -22z"/>
<path d="M8174 5562 c-176 -83 -218 -292 -84 -422 171 -167 456 -50 453 185
-2 99 -44 172 -130 222 -62 36 -178 43 -239 15z"/>
<path d="M2460 4311 l0 -1251 574 0 c637 0 665 2 855 66 439 146 745 487 833
929 28 142 28 372 -1 512 -87 424 -388 769 -796 913 -207 73 -204 73 -867 77
l-598 4 0 -1250z m1220 800 c104 -31 223 -92 300 -154 292 -238 382 -683 208
-1032 -100 -198 -254 -333 -468 -407 l-95 -33 -347 -3 -348 -3 0 831 0 832
338 -5 c311 -3 343 -6 412 -26z"/>
<path d="M11642 4458 l3 -1103 23 -60 c12 -33 35 -78 51 -100 30 -42 111 -97
171 -117 19 -6 128 -13 243 -15 l207 -5 0 195 0 195 -106 4 c-102 3 -107 4
-130 31 l-24 28 0 1025 0 1024 -220 0 -221 0 3 -1102z"/>
<path d="M16090 4310 l0 -1250 220 0 220 0 0 244 0 244 120 112 c105 98 122
111 133 97 7 -9 136 -169 287 -356 l274 -341 269 0 c212 0 267 3 261 13 -8 11
-488 606 -696 862 l-98 120 63 60 c34 33 178 167 320 298 141 131 257 242 256
245 0 7 -239 211 -279 240 -16 12 -62 -28 -461 -402 l-444 -415 -3 739 -2 740
-220 0 -220 0 0 -1250z"/>
<path d="M7402 4914 l-123 -117 -77 36 c-146 67 -249 89 -412 90 -164 0 -292
-30 -432 -99 -202 -101 -356 -302 -398 -521 -8 -38 -11 -109 -8 -180 4 -98 10
-133 35 -206 33 -94 78 -175 131 -238 l34 -39 -53 -58 c-117 -128 -172 -249
-171 -381 0 -139 75 -266 199 -341 117 -70 144 -73 633 -80 l435 -5 48 -28
c66 -39 86 -85 87 -194 l0 -83 211 0 212 0 -6 153 c-9 266 -73 389 -246 477
-118 59 -145 62 -616 69 -470 7 -466 6 -514 67 -30 38 -28 105 4 160 29 49 53
66 75 54 9 -5 54 -19 100 -31 111 -30 355 -33 464 -6 178 45 311 121 428 246
82 87 134 175 169 291 20 62 24 97 24 205 -1 143 -12 196 -68 319 l-31 69 117
111 118 111 -91 100 c-51 55 -106 115 -123 132 l-32 33 -123 -116z m-439 -384
c72 -27 151 -90 195 -154 48 -72 65 -142 60 -246 -3 -73 -9 -98 -36 -153 -98
-199 -369 -283 -586 -184 -72 33 -159 116 -191 181 -114 237 13 505 270 573
72 18 216 10 288 -17z"/>
<path d="M13371 4919 c-487 -47 -864 -521 -827 -1038 26 -348 214 -631 520
-780 233 -114 535 -131 792 -46 188 62 343 180 454 346 33 50 60 94 60 98 0 4
-84 41 -187 83 l-188 77 -25 -32 c-96 -123 -191 -194 -295 -222 -91 -24 -254
-22 -336 4 -120 38 -233 130 -295 240 -24 44 -64 149 -64 171 0 7 224 10 694
10 l694 0 8 77 c19 206 -28 433 -121 588 -185 306 -507 461 -884 424z m237
-384 c88 -21 152 -56 211 -116 52 -53 106 -148 117 -206 l7 -33 -472 0 c-430
0 -471 1 -471 16 0 9 16 51 37 93 59 124 161 211 291 246 64 18 204 18 280 0z"/>
<path d="M5120 3960 l0 -910 218 2 217 3 0 905 0 905 -217 3 -218 2 0 -910z"/>
<path d="M8060 3960 l0 -910 215 0 215 0 0 910 0 910 -215 0 -215 0 0 -910z"/>
<path d="M14720 3960 l0 -910 215 0 215 0 0 563 0 562 24 50 c31 67 117 150
192 185 75 36 161 50 322 50 l122 0 0 206 0 207 -162 -6 c-168 -6 -225 -16
-313 -58 -49 -23 -156 -120 -186 -168 -14 -23 -16 -17 -38 103 l-23 126 -184
0 -184 0 0 -910z"/>
</g>
</svg>
