<?xml version="1.0" encoding="UTF-8"?>
<!DOCTYPE svg PUBLIC "-//W3C//DTD SVG 1.1//EN" "http://www.w3.org/Graphics/SVG/1.1/DTD/svg11.dtd">
<svg xmlns="http://www.w3.org/2000/svg" version="1.1" width="2006px" height="771px" style="shape-rendering:geometricPrecision; text-rendering:geometricPrecision; image-rendering:optimizeQuality; fill-rule:evenodd; clip-rule:evenodd" xmlns:xlink="http://www.w3.org/1999/xlink">
<g><path style="opacity:0.982" fill="#004860" d="M 1004.5,209.5 C 1058.67,205.682 1101,225.848 1131.5,270C 1117.75,277.294 1103.91,284.461 1090,291.5C 1069.86,261.544 1041.69,248.711 1005.5,253C 965.383,261.452 941.883,285.952 935,326.5C 930.787,364.589 944.287,394.422 975.5,416C 1009,433.167 1041,430.834 1071.5,409C 1080.53,401.479 1087.86,392.646 1093.5,382.5C 1107.65,388.743 1121.65,395.243 1135.5,402C 1109.57,446.235 1070.73,469.068 1019,470.5C 970.562,469.457 932.895,449.124 906,409.5C 887.832,377.171 882.832,342.838 891,306.5C 907.848,249.477 945.682,217.144 1004.5,209.5 Z"/></g>
<g><path style="opacity:0.973" fill="#004860" d="M 526.5,212.5 C 546.075,210.602 557.408,219.268 560.5,238.5C 559.265,251.829 552.265,260.329 539.5,264C 524.329,266.336 513.829,260.502 508,246.5C 504.518,229.836 510.685,218.502 526.5,212.5 Z"/></g>
<g><path style="opacity:0.972" fill="#004960" d="M 820.5,212.5 C 840.076,210.602 851.41,219.269 854.5,238.5C 851.2,256.967 840.2,265.467 821.5,264C 806.567,259.307 799.734,249.14 801,233.5C 803.914,223.089 810.414,216.089 820.5,212.5 Z"/></g>
<g><path style="opacity:0.98" fill="#004860" d="M 245.5,214.5 C 282.835,214.333 320.168,214.5 357.5,215C 412.908,221.09 450.075,250.256 469,302.5C 482.657,355.175 469.49,399.675 429.5,436C 409.772,451.36 387.439,460.693 362.5,464C 323.501,464.5 284.501,464.667 245.5,464.5C 245.5,381.167 245.5,297.833 245.5,214.5 Z M 292.5,256.5 C 315.532,256.088 338.532,256.588 361.5,258C 393.507,265.006 414.34,284.173 424,315.5C 433.054,354.346 421.887,385.846 390.5,410C 380.319,416.172 369.319,420.172 357.5,422C 335.836,422.5 314.169,422.667 292.5,422.5C 292.5,367.167 292.5,311.833 292.5,256.5 Z"/></g>
<g><path style="opacity:0.985" fill="#004860" d="M 1163.5,214.5 C 1178.17,214.5 1192.83,214.5 1207.5,214.5C 1207.33,282.834 1207.5,351.167 1208,419.5C 1209.26,422.428 1211.43,424.261 1214.5,425C 1220.82,425.5 1227.16,425.666 1233.5,425.5C 1233.5,438.5 1233.5,451.5 1233.5,464.5C 1220.83,464.667 1208.16,464.5 1195.5,464C 1175.75,461.011 1165.25,449.511 1164,429.5C 1163.5,357.834 1163.33,286.167 1163.5,214.5 Z"/></g>
<g><path style="opacity:0.976" fill="#004860" d="M 1608.5,214.5 C 1623.17,214.5 1637.83,214.5 1652.5,214.5C 1652.33,263.834 1652.5,313.168 1653,362.5C 1682.67,334.833 1712.33,307.167 1742,279.5C 1751.74,287.952 1761.57,296.285 1771.5,304.5C 1750.34,324.822 1729.01,344.988 1707.5,365C 1734.55,397.711 1761.21,430.711 1787.5,464C 1769.5,464.667 1751.5,464.667 1733.5,464C 1714.69,440.355 1695.69,416.855 1676.5,393.5C 1668.57,400.717 1660.74,408.051 1653,415.5C 1652.5,431.83 1652.33,448.163 1652.5,464.5C 1637.83,464.5 1623.17,464.5 1608.5,464.5C 1608.5,381.167 1608.5,297.833 1608.5,214.5 Z"/></g>
<g><path style="opacity:0.98" fill="#004860" d="M 751.5,267.5 C 759.967,276.136 768.3,284.969 776.5,294C 768.154,301.012 760.488,308.679 753.5,317C 771.235,353.542 765.235,385.542 735.5,413C 706.722,432.92 675.889,436.753 643,424.5C 634.929,429.981 632.596,437.315 636,446.5C 639.016,450.092 642.849,452.258 647.5,453C 672.833,453.333 698.167,453.667 723.5,454C 739.999,454.336 753.833,460.502 765,472.5C 770.392,480.677 773.392,489.677 774,499.5C 774.5,507.493 774.666,515.493 774.5,523.5C 760.5,523.5 746.5,523.5 732.5,523.5C 732.877,516.743 732.377,510.076 731,503.5C 728.894,498.853 725.394,495.686 720.5,494C 690.176,492.983 659.843,491.983 629.5,491C 607.001,486.669 594.334,473.169 591.5,450.5C 592.281,441.656 594.781,433.323 599,425.5C 603.688,418.799 608.855,412.466 614.5,406.5C 594.408,383.207 589.242,356.873 599,327.5C 609.721,303.458 627.887,287.958 653.5,281C 679.188,274.905 703.688,278.072 727,290.5C 735.352,282.98 743.519,275.313 751.5,267.5 Z M 671.5,314.5 C 688.469,312.653 702.636,317.986 714,330.5C 723.192,345.431 723.858,360.765 716,376.5C 701.254,394.482 682.754,399.649 660.5,392C 640.536,382.238 632.703,366.405 637,344.5C 642.766,327.9 654.266,317.9 671.5,314.5 Z"/></g>
<g><path style="opacity:0.981" fill="#004860" d="M 1344.5,277.5 C 1388.14,277.708 1417.64,298.041 1433,338.5C 1437.38,354.6 1438.54,370.933 1436.5,387.5C 1390.17,387.5 1343.83,387.5 1297.5,387.5C 1303.66,415.32 1320.99,430.32 1349.5,432.5C 1362.04,432.698 1373.37,429.198 1383.5,422C 1389.41,416.761 1394.58,410.928 1399,404.5C 1411.56,409.74 1424.06,415.073 1436.5,420.5C 1417.92,454.136 1389.25,470.802 1350.5,470.5C 1304.98,469.351 1274.14,447.685 1258,405.5C 1247.28,363.327 1257.78,327.493 1289.5,298C 1305.72,285.319 1324.05,278.486 1344.5,277.5 Z M 1336.5,315.5 C 1353.68,313.25 1368.85,317.583 1382,328.5C 1388.25,335.33 1392.08,343.33 1393.5,352.5C 1362.17,352.5 1330.83,352.5 1299.5,352.5C 1304.22,332.445 1316.55,320.112 1336.5,315.5 Z"/></g>
<g><path style="opacity:0.985" fill="#004861" d="M 511.5,283.5 C 526.079,283.176 540.579,283.51 555,284.5C 555.667,344.5 555.667,404.5 555,464.5C 540.579,465.49 526.079,465.824 511.5,465.5C 511.5,404.833 511.5,344.167 511.5,283.5 Z"/></g>
<g><path style="opacity:0.986" fill="#004861" d="M 805.5,283.5 C 819.833,283.5 834.167,283.5 848.5,283.5C 848.5,344.167 848.5,404.833 848.5,465.5C 834.167,465.5 819.833,465.5 805.5,465.5C 805.5,404.833 805.5,344.167 805.5,283.5 Z"/></g>
<g><path style="opacity:0.983" fill="#004861" d="M 1471.5,283.5 C 1483.83,283.5 1496.17,283.5 1508.5,283.5C 1509.78,291.861 1511.28,300.194 1513,308.5C 1522.6,293.245 1536.43,285.078 1554.5,284C 1563.16,283.5 1571.83,283.334 1580.5,283.5C 1580.5,297.167 1580.5,310.833 1580.5,324.5C 1567.39,323.966 1554.39,324.8 1541.5,327C 1530.17,331.329 1521.67,338.829 1516,349.5C 1514.52,388.106 1514.02,426.772 1514.5,465.5C 1500.17,465.5 1485.83,465.5 1471.5,465.5C 1471.5,404.833 1471.5,344.167 1471.5,283.5 Z"/></g>
</svg>
