<svg width="273" height="221" viewBox="0 0 273 221" fill="none" xmlns="http://www.w3.org/2000/svg">
<path d="M27.8187 140.452C28.0388 117.5 36.7446 96.0634 51.3071 79.1445L26.0927 52.3438C7.36753 76.5314 -2.51194 106.972 0.55047 139.008C0.678834 140.351 0.836997 141.683 1.00891 143.013L27.8187 140.452Z" fill="#63C29D"/>
<path d="M59.4129 70.7521C74.6584 56.6687 94.5045 46.8786 116.893 43.7474L116.817 1.16027C83.5316 5.40317 54.4869 21.0109 33.6827 43.4013L59.4129 70.7521Z" fill="#1C8FA6"/>
<path d="M3.06219 154.522C9.07469 180.72 23.5753 203.518 43.5038 220.529L55.5426 207.827C40.854 193.066 30.9608 173.82 28.4531 152.094L3.06219 154.522Z" fill="#B4DCB7"/>
<path d="M128.472 0.143862L128.547 42.7585C152.795 41.954 175.524 49.2134 193.642 62.1622L222.567 31.6504C197.605 10.5849 164.272 -1.46986 128.472 0.143862Z" fill="#004961"/>
<path d="M50.4654 152.159C46.7268 113.031 75.4162 78.281 114.544 74.5401C132.944 72.782 150.372 78.1962 164.066 88.4929L176.104 75.7481C160.249 64.1518 140.256 58.0843 119.163 60.0991C73.4679 64.4658 39.9648 105.05 44.3314 150.745C45.9681 167.872 52.6935 183.285 62.8663 195.636L66.9511 191.31C57.9014 180.617 51.8981 167.16 50.4654 152.159Z" fill="#63C29D"/>
<path d="M102.598 188.713L112.874 189.953V193.041H91.2061V189.953L100.955 188.713H102.598ZM102.791 141.741L92.0335 140.501V137.269H115.389V140.501L104.434 141.741H102.791ZM95.983 193.043L118.995 163.444L121.404 165.603L100.953 193.043H95.983ZM103.893 137.269L121.83 162.676L143.668 193.043H136.711L118.298 166.804L97.34 137.269H103.893ZM143.755 137.269L121.33 166.277L118.969 164.042L138.829 137.267L143.755 137.269ZM138.219 188.569L149.126 189.953V193.041H124.549V189.953L136.647 188.569H138.219ZM137.11 141.693L126.804 140.501V137.269H148.055V140.501L138.683 141.693H137.11Z" fill="#004961"/>
<path d="M182.028 189.955V193.042H154.198V189.955L167.351 188.57H168.946L182.028 189.955ZM169.84 104.973L171.495 105.92L171.163 122.713V168.211C171.163 175.929 171.28 186.519 171.518 193.045H164.99C165.226 186.519 165.345 175.929 165.345 168.211V111.554L154.968 111.073V107.985L169.84 104.973Z" fill="#004961"/>
<path d="M200.955 168.211V162.512C200.955 154.957 200.838 148.839 200.599 143.338L190.227 142.905V139.817L204.629 136.083L206.052 136.986L206.77 152.328V168.211C206.77 175.543 206.889 187.722 207.125 193.045H200.597C200.835 187.722 200.955 175.541 200.955 168.211ZM190.894 189.955L203.201 188.57H204.796L217.594 189.955V193.042H190.894V189.955ZM203.792 152.245H208.15L206.105 153.424C209.61 142.916 217.454 135.732 225.481 135.732C229.261 135.732 232.528 137.318 233.527 139.262C233.527 142.93 231.959 144.743 228.629 144.743C226.258 144.743 224.503 143.608 222.233 141.694L219.531 139.395L225.325 139.262C216.872 140.805 211.004 146.788 206.603 158.065H203.79V152.245H203.792Z" fill="#004961"/>
<path d="M262.797 190.485C266.169 190.485 268.394 189.63 271.399 187.874L272.999 190.157C270.182 193.032 266.246 194.577 261.382 194.577C252.942 194.577 249.048 189.83 249.188 180.514C249.188 178.027 249.305 175.753 249.305 171.982V141.455H237.55V137.982L252.635 136.861L249.236 139.362L251.452 120.275H255.789L255.125 140.478V180.264C255.125 187.464 257.866 190.485 262.797 190.485ZM271.933 141.455H252.216V137.267H271.933V141.455Z" fill="#004961"/>
</svg>
